<svg width="22" height="22" viewBox="0 0 25 25" fill="none" xmlns="http://www.w3.org/2000/svg">
<path d="M22.6562 7.03125V17.9687C22.6562 18.5904 22.4093 19.1865 21.9698 19.626C21.5302 20.0656 20.9341 20.3125 20.3125 20.3125H4.6875C4.0659 20.3125 3.46976 20.0656 3.03022 19.626C2.59068 19.1865 2.34375 18.5904 2.34375 17.9687V7.03125M22.6562 7.03125C22.6562 6.40965 22.4093 5.81351 21.9698 5.37397C21.5302 4.93443 20.9341 4.6875 20.3125 4.6875H4.6875C4.0659 4.6875 3.46976 4.93443 3.03022 5.37397C2.59068 5.81351 2.34375 6.40965 2.34375 7.03125M22.6562 7.03125V7.28437C22.6563 7.68453 22.5539 8.07803 22.3588 8.42739C22.1637 8.77676 21.8824 9.07035 21.5417 9.28021L13.7292 14.0875C13.3596 14.3151 12.9341 14.4357 12.5 14.4357C12.0659 14.4357 11.6404 14.3151 11.2708 14.0875L3.45833 9.28125C3.11763 9.07139 2.83632 8.7778 2.64122 8.42843C2.44611 8.07907 2.34371 7.68557 2.34375 7.28542V7.03125" stroke="#8A8A8A" stroke-width="1.5" stroke-linecap="round" stroke-linejoin="round"/>
</svg>
