<svg width="70" height="70" viewBox="0 0 90 90" fill="none" xmlns="http://www.w3.org/2000/svg">
<path d="M89.5122 19.8H87.9822C86.0904 19.8 84.3084 20.682 83.1582 22.1832L67.4982 42.6618L51.8382 22.1832C50.6916 20.682 48.9078 19.8 47.0178 19.8H45.4878L65.2356 45.6228L45.0648 72H46.5948C48.4866 72 50.2686 71.118 51.417 69.6168L67.5 48.5856L83.583 69.6168C84.7314 71.118 86.5134 72 88.4052 72H89.9352L69.7644 45.6228L89.5122 19.8ZM38.3202 61.6356C33.723 68.6214 24.6726 72.2016 16.02 69.0444C8.4078 66.267 3.6 58.6998 3.6 50.5962V48.6H25.2H45V41.1588C45 29.4498 36.3276 19.1988 24.669 18.1026C11.2914 16.8444 0 27.378 0 40.5V50.5314C0 60.1992 5.787 69.1866 14.8842 72.4608C26.7696 76.7376 39.2706 70.3548 43.497 59.4H42.3486C40.7088 59.4 39.2202 60.2658 38.3202 61.6356ZM3.6 40.5C3.6 30.078 12.078 21.6 22.5 21.6C32.922 21.6 41.4 30.078 41.4 40.5V45H3.6V40.5Z" fill="#837C7C"/>
</svg>
