<svg width="45" height="44" viewBox="0 0 45 44" fill="none" xmlns="http://www.w3.org/2000/svg">
<g clip-path="url(#clip0_23_30)">
<path d="M33.1813 21.5769V32.3231" stroke="#9A9A9A" stroke-miterlimit="10" stroke-linecap="round" stroke-linejoin="round"/>
<path d="M4.24628 32.323V15.3153C4.24628 14.0884 5.26154 13.073 6.48832 13.073H29.6701" stroke="#9A9A9A" stroke-miterlimit="10" stroke-linecap="round" stroke-linejoin="round"/>
<path d="M15.6258 32.323C15.6258 33.1692 16.3027 33.5499 17.1487 33.5499H20.2368C21.0829 33.5499 21.7597 33.1692 21.7597 32.323H35.8041V33.8038C35.8041 34.6922 35.085 35.4115 34.1966 35.4115H3.10422C2.21586 35.4115 1.49672 34.6922 1.49672 33.8038V32.323H15.6258Z" stroke="#9A9A9A" stroke-miterlimit="10" stroke-linecap="round" stroke-linejoin="round"/>
<path d="M11.0995 21.5769H13.638" stroke="#9A9A9A" stroke-miterlimit="10" stroke-linecap="round" stroke-linejoin="round"/>
<path d="M8.13838 19.0386L9.40761 20.3078L8.13838 21.577" stroke="#9A9A9A" stroke-miterlimit="10" stroke-linecap="round" stroke-linejoin="round"/>
<path d="M8.13838 26.7385H10.6768" stroke="#9A9A9A" stroke-miterlimit="10" stroke-linecap="round" stroke-linejoin="round"/>
<path d="M12.3683 26.7385H16.176" stroke="#9A9A9A" stroke-miterlimit="10" stroke-linecap="round" stroke-linejoin="round"/>
<path d="M8.13838 24.2H12.5807" stroke="#9A9A9A" stroke-miterlimit="10" stroke-linecap="round" stroke-linejoin="round"/>
<path d="M14.4839 24.2H17.0223" stroke="#9A9A9A" stroke-miterlimit="10" stroke-linecap="round" stroke-linejoin="round"/>
<path d="M18.7137 24.2H22.0984" stroke="#9A9A9A" stroke-miterlimit="10" stroke-linecap="round" stroke-linejoin="round"/>
<path d="M38.2579 15.2307L35.762 16.7961L33.1815 18.4038L30.6434 16.7961L28.1052 15.2307L30.6434 13.623L33.1815 15.2307H33.2238L35.7197 13.623L38.2579 15.2307Z" fill="#9A9A9A"/>
<path d="M35.762 16.7961L38.2579 18.4038L33.1815 21.5769L28.1052 18.4038L30.6434 16.7961" stroke="#9A9A9A" stroke-miterlimit="10" stroke-linecap="round" stroke-linejoin="round"/>
<path d="M33.1813 15.2308V15.1885L33.2236 15.2308" stroke="#9A9A9A" stroke-miterlimit="10" stroke-linecap="round" stroke-linejoin="round"/>
<path d="M30.6434 13.623L28.1052 15.2307L30.6434 16.7961L33.1815 18.4038L35.762 16.7961L38.2579 15.2307L35.7197 13.623" stroke="#9A9A9A" stroke-miterlimit="10" stroke-linecap="round" stroke-linejoin="round"/>
<path d="M30.6434 13.623L28.1052 12.0576L33.1815 8.88452L38.2579 12.0576L35.7197 13.623L33.2238 15.2307H33.1815L30.6434 13.623Z" stroke="#9A9A9A" stroke-miterlimit="10" stroke-linecap="round" stroke-linejoin="round"/>
</g>
<defs>
<clipPath id="clip0_23_30">
<rect width="43.9948" height="44" fill="white" transform="translate(0.496719)"/>
</clipPath>
</defs>
</svg>
