<svg width="70" height="70" viewBox="0 0 90 91" fill="none" xmlns="http://www.w3.org/2000/svg">
<path fill-rule="evenodd" clip-rule="evenodd" d="M58.2209 24.7346C56.3899 19.0337 53.453 13.9881 49.3144 9.64627C48.2681 8.54799 47.1052 7.54181 46.3753 6.17564C45.9141 5.3108 45.4746 4.434 45.0253 3.56353L44.7399 2.84564L44.6604 3.1283C44.6231 4.54861 43.8188 5.51119 42.8175 6.41049C41.6897 7.42158 40.6406 8.51986 39.5578 9.58088L36.2278 13.9606L33.5356 18.912L31.7349 23.7742L31.6807 23.8494C30.69 27.1042 30.2013 30.451 29.9616 33.8303C29.8709 35.1008 29.9749 36.3889 30.0459 37.6658C30.1479 39.4911 30.465 41.2848 30.9403 43.0517C32.6679 49.4685 36.1744 54.7904 40.969 59.3129C41.8592 60.1531 42.8217 60.9174 43.7506 61.7162L44.1619 63.1281L44.5444 65.319L44.7272 67.6063C44.7251 68.0703 44.7061 68.5365 44.7335 68.9992C44.7413 69.118 44.896 69.2277 44.9831 69.3416L45.7594 69.6144L46.5673 69.9287L46.4288 67.896L46.4224 65.8935L46.7016 62.8433L46.9041 62.1796L47.4841 61.1523C48.1999 60.5771 48.967 60.054 49.6188 59.4135C50.798 58.2554 51.975 57.0812 53.0304 55.812C54.3994 54.166 55.5778 52.3695 56.5242 50.443C57.1563 49.1542 57.7526 47.8393 58.2455 46.4928C58.68 45.306 58.9493 44.0579 59.2917 42.8366L59.3817 42.5729C60.0884 39.2767 60.2072 35.9467 59.9477 32.5956C59.7389 29.8949 59.104 27.2884 58.2209 24.7346ZM44.2287 60.0842C44.337 59.5421 44.4713 59.0028 44.569 58.4586C44.4713 59.0028 44.3377 59.5421 44.2287 60.0842ZM74.8645 73.0632C74.2838 71.9502 73.4316 71.105 72.3052 70.5503C71.3616 70.0862 70.347 69.8823 69.3035 69.8528C68.5217 69.8303 67.737 69.8703 66.9537 69.8802C66.2583 69.8886 65.5622 69.9006 64.8668 69.8942C64.0491 69.8858 63.2313 69.8612 62.4136 69.838C62.2779 69.8338 62.1816 69.8612 62.1183 69.999C62.0192 70.2135 61.9017 70.4202 61.7801 70.655L61.9165 70.6986C62.3222 70.7703 62.73 70.8315 63.1336 70.9124C63.6525 71.0157 63.8859 71.3138 63.9099 71.7512C63.945 72.3742 63.9591 72.9985 63.957 73.6229C63.9464 76.0937 63.9288 78.5645 63.9106 81.0346C63.9091 81.1977 63.9063 81.3678 63.862 81.5211C63.8107 81.6983 63.7552 81.9275 63.623 82.0147C63.3945 82.1666 63.1111 82.2692 62.839 82.3135C62.4445 82.3782 62.3784 82.3958 62.2554 82.7839L62.202 82.978C62.1429 83.1896 62.1745 83.2311 62.3953 83.2332C63.6624 83.2473 64.9287 83.2747 66.195 83.2705C67.3502 83.2663 68.5055 83.3366 69.6565 83.1193C70.7442 82.9147 71.7595 82.5561 72.6863 81.9493C73.8886 81.1611 74.7534 80.1078 75.2098 78.7332C75.5782 77.623 75.6605 76.4902 75.5353 75.3294C75.4502 74.5285 75.2351 73.7741 74.8645 73.0632ZM72.6448 79.8561C71.967 81.1175 70.9559 81.9599 69.5109 82.182C68.606 82.3206 67.6997 82.2805 66.837 81.9381C66.2906 81.7215 66.0874 81.2497 66.0706 80.6921C66.0544 80.1458 66.0481 79.5988 66.0474 79.0524C66.0445 77.1301 66.0445 75.2077 66.0474 73.2861C66.0488 72.6807 66.0593 72.0739 66.0691 71.4678C66.0762 71.0417 66.1655 70.899 66.581 70.8645C68.4063 70.7113 70.148 70.9081 71.5943 72.1927C72.4887 72.9873 72.9977 74.0005 73.2094 75.1642C73.2973 75.6493 73.324 76.1457 73.3788 76.6379C73.3345 77.7615 73.1827 78.8549 72.6448 79.8561ZM87.9652 77.7742C87.6052 76.8981 86.9231 76.3489 86.066 75.9974C85.7735 75.8771 85.4719 75.778 85.1562 75.6613L85.2666 75.591C85.6076 75.3723 85.9873 75.1958 86.2812 74.9265C86.9956 74.2719 87.2923 73.4485 87.1531 72.4705C87.0209 71.5403 86.5568 70.8575 85.7278 70.4146C84.9755 70.0138 84.1641 69.8675 83.3245 69.8682C81.8719 69.8696 80.4185 69.8914 78.9659 69.8942C78.4652 69.8949 77.9646 69.8577 77.464 69.8506C77.367 69.8492 77.2228 69.8738 77.1813 69.9385C77.0667 70.1143 76.9908 70.3168 76.9092 70.5123C76.8621 70.6262 76.9085 70.6888 77.0386 70.7056C77.3881 70.7535 77.7368 70.8132 78.087 70.8652C78.5707 70.9377 78.8049 71.1894 78.8344 71.6767L78.8407 71.9656C78.8414 73.4809 78.8463 74.9961 78.84 76.5113C78.8323 78.0238 78.8154 79.5376 78.7971 81.0507C78.795 81.2413 78.769 81.4325 78.7416 81.6217C78.7001 81.9071 78.5475 82.104 78.255 82.1659L77.4274 82.329C77.3297 82.3487 77.1884 82.3459 77.1483 82.4063C76.9964 82.6335 76.8741 82.8817 76.891 83.1812L76.976 83.2044L79.7555 83.2726L80.3131 83.2705C81.2749 83.2592 82.2382 83.2782 83.1987 83.229C84.2386 83.177 85.2152 82.8683 86.1181 82.3374C87.0792 81.7714 87.8189 81.0254 88.0819 79.9032C88.2506 79.1867 88.2513 78.466 87.9652 77.7742ZM80.9037 71.3188C80.9079 71.0143 81.0422 70.8821 81.3445 70.8744C82.0891 70.854 82.8288 70.8582 83.5474 71.1149C84.477 71.4467 85.0486 72.2483 85.0381 73.2278C85.0331 73.6039 85.0388 73.9766 84.9002 74.338C84.6267 75.0496 84.1022 75.425 83.3583 75.4981C82.9702 75.5375 82.5785 75.5417 82.2326 75.56L81.0781 75.5094C80.9248 75.5038 80.858 75.4363 80.8587 75.2788L80.9037 71.3188ZM85.6892 80.8067C85.3172 81.616 84.6394 82.0414 83.7907 82.1891C83.1122 82.3072 82.4281 82.2728 81.7573 82.0998C81.2609 81.9725 81.0584 81.5738 80.9592 81.1316C80.8924 80.8356 80.9037 80.4833 80.8981 80.1753C80.8889 79.7 80.896 78.7135 80.896 78.7135H80.8861C80.8861 78.0104 80.8882 77.4015 80.884 76.7272C80.8833 76.5817 80.9079 76.5092 81.0858 76.5149C81.7172 76.5338 82.3507 76.5444 82.9821 76.569C83.5467 76.5908 84.0755 76.7581 84.5726 77.026C85.3291 77.4338 85.7848 78.0582 85.9099 78.916C86.0056 79.5664 85.9648 80.2063 85.6892 80.8067ZM16.3702 81.5647L16.3835 77.7418C16.3856 77.1667 16.3125 76.6028 16.1241 76.0571C15.6045 74.5546 14.1715 73.8704 12.6795 74.4097C12.001 74.6551 11.3927 75.0271 10.812 75.4489C10.4738 75.695 10.4738 75.695 10.2291 75.3442C9.5365 74.3513 8.5472 74.0117 7.39548 74.3781C6.65087 74.6143 5.99978 75.0186 5.38314 75.4883C5.32548 75.5319 5.20947 75.5804 5.17501 75.5544C5.11736 75.5115 5.07728 75.4096 5.07868 75.3329L5.12087 74.6537C5.12439 74.511 5.09697 74.3675 5.0829 74.2178C4.80447 74.3141 4.58228 74.4104 4.34954 74.4667C3.63025 74.6424 2.90603 74.8042 2.18251 74.9694C2.00743 75.0095 1.82251 75.0622 1.80564 75.2633C1.78806 75.4609 1.97861 75.4939 2.12626 75.553C2.43704 75.6781 2.74572 75.811 3.05298 75.946C3.31103 76.0599 3.40736 76.266 3.40595 76.543C3.40103 77.7278 3.40876 78.9111 3.40173 80.0959C3.39892 80.5775 3.37642 81.0585 3.35462 81.5401C3.33493 81.9669 3.18939 82.1455 2.77595 82.2531C2.55657 82.3107 2.33368 82.3494 2.1129 82.4014C2.06439 82.4127 1.98142 82.4436 1.98072 82.4675C1.97157 82.6763 1.96033 82.8901 1.99548 83.0933C2.00251 83.1299 2.22329 83.1299 2.34564 83.1439L2.4279 83.139C3.28009 83.1263 4.13228 83.113 4.98517 83.1039C5.43728 83.0989 5.88868 83.1031 6.37947 83.1031L6.4322 82.4211C6.15095 82.3698 5.89993 82.3311 5.65243 82.277C5.26642 82.1926 5.10189 81.988 5.09204 81.5984L5.08501 81.0409C5.08079 79.5946 5.07517 78.1489 5.07517 76.7026C5.07517 76.4924 5.16236 76.3257 5.34728 76.1999C5.73892 75.9355 6.15236 75.7253 6.61009 75.6078C7.57478 75.361 8.4115 75.7042 8.78275 76.5247C8.90017 76.7835 8.99228 77.0696 9.01829 77.3509C9.1547 78.8007 9.09564 80.252 9.01337 81.7018C8.99579 82.0147 8.84884 82.1722 8.54017 82.2488L7.81454 82.4021C7.75619 82.4169 7.67111 82.3775 7.66689 82.426C7.65072 82.6264 7.65986 82.9337 7.65986 82.9337H7.83283L10.042 83.0061C10.6474 83.0047 11.2535 83.0778 11.8582 83.0933C11.9665 83.0954 12.0628 83.1116 12.0692 82.9864C12.079 82.7881 12.0706 82.6018 12.0614 82.4035L11.9461 82.3831L11.3238 82.2432C10.9041 82.1441 10.7592 81.9845 10.7578 81.5598C10.7529 80.5128 10.767 79.4666 10.7578 78.4203C10.7529 77.822 10.7297 77.2236 10.691 76.6267C10.6805 76.4678 10.7051 76.3637 10.8317 76.2744C11.2043 76.0086 11.6072 75.804 12.0495 75.6873C13.41 75.3287 14.5238 76.0747 14.5941 77.4774C14.663 78.8303 14.6342 80.188 14.6236 81.5436C14.6201 82.0154 14.464 82.1581 13.9992 82.2847L13.8389 82.3262C13.3629 82.4401 13.3671 82.4401 13.3952 82.9456C13.4044 83.1038 13.448 83.1446 13.6167 83.1404C14.5863 83.1186 15.556 83.113 16.5256 83.1046C16.9221 83.101 17.3187 83.1046 17.7504 83.1046L17.8383 82.4464C17.4593 82.3459 17.1099 82.2713 16.7724 82.161C16.4742 82.0597 16.3688 81.8797 16.3702 81.5647ZM49.7609 75.7703C50.1602 75.3997 50.1631 74.9103 50.0513 74.3668C49.7349 74.698 49.3805 74.8506 48.9762 74.8794C48.4341 74.9181 47.9018 74.871 47.397 74.6551C46.0315 74.0687 44.6871 74.1102 43.347 74.7535C42.2199 75.2935 41.5266 76.1352 41.457 77.4113C41.4127 78.2291 41.5659 79.0032 42.1116 79.6536C42.4385 80.0431 42.8583 80.2956 43.3315 80.4699C43.5354 80.5452 43.5509 80.6422 43.38 80.7723C43.2549 80.8686 43.122 80.9558 42.9884 81.0395C42.7029 81.2188 42.4153 81.396 42.1263 81.5696C41.9569 81.6723 41.8992 81.8031 41.9548 82.0035C42.1172 82.5927 42.5356 82.933 43.0587 83.1812L43.2492 83.3141L43.0826 83.4807C42.57 83.8963 42.037 84.2886 41.5463 84.7295C41.1342 85.1 41.0013 85.5964 41.1258 86.1442C41.3768 87.2375 42.1017 87.9139 43.1304 88.2247C44.9283 88.7689 46.6165 88.4567 48.1556 87.3915C49.0683 86.7594 49.7229 85.9367 49.9219 84.8047C50.1448 83.5328 49.4381 82.4288 48.1732 82.201C47.3365 82.0492 46.4801 82.0056 45.6335 81.9085C45.2384 81.8635 44.8376 81.8368 44.453 81.7461C44.126 81.6688 43.9636 81.4023 43.9938 81.1421C44.0241 80.8862 44.2962 80.6478 44.6077 80.6232C45.2349 80.5726 45.8494 80.4749 46.4274 80.2105C47.9588 79.5102 48.6696 78.2839 48.4917 76.633C48.4685 76.4108 48.4179 76.1914 48.3722 75.9327C48.8623 76.0149 49.3636 76.1394 49.7609 75.7703ZM45.1139 83.5166C45.7369 83.5349 46.4456 83.5735 47.1305 83.7739C47.7331 83.9497 48.2288 84.2577 48.375 84.9306C48.5515 85.7434 48.1606 86.552 47.3738 86.9865C46.6369 87.3929 45.8367 87.4267 45.0253 87.343C44.3306 87.2713 43.7056 87.0308 43.2049 86.5175C42.5454 85.8418 42.5419 84.9067 43.2021 84.2331C43.792 83.6312 44.1077 83.5067 45.1139 83.5166ZM46.6727 78.6214C46.3099 79.7823 45.2538 79.9426 44.4263 79.5714C43.721 79.2556 43.4138 78.6341 43.2527 77.9246C43.1902 77.6518 43.1754 77.3685 43.1388 77.0893C43.1536 76.6892 43.2197 76.3053 43.392 75.9453C43.92 74.8365 45.2173 74.9026 45.9352 75.4046C46.2431 75.6198 46.4576 75.9123 46.5919 76.2589C46.89 77.0352 46.9202 77.8262 46.6727 78.6214ZM40.0845 82.322C39.8349 82.2819 39.5838 82.2299 39.3413 82.156C38.9138 82.0253 38.8617 81.9451 38.8568 81.493C38.8442 80.233 38.8357 78.973 38.8217 77.7137C38.8146 77.147 38.7471 76.588 38.5735 76.0466C38.1164 74.6192 36.7165 73.8528 35.3159 74.274C34.5396 74.5081 33.8731 74.9434 33.2522 75.4545L33.0258 75.6282L33.0265 75.3955C33.0413 75.1276 33.0701 74.8597 33.068 74.5918C33.0666 74.4519 33.0131 74.3113 32.9871 74.1882C32.4577 74.3478 31.9831 74.5081 31.4986 74.6305C31.0127 74.7528 30.517 74.8358 30.0256 74.9356C29.7816 74.9849 29.6023 75.1325 29.6065 75.3006C29.6128 75.5375 29.809 75.5832 29.9806 75.6542C30.2913 75.7815 30.6014 75.9102 30.9087 76.0466C31.1281 76.1443 31.2174 76.3257 31.2152 76.5613C31.1998 78.1988 31.1899 79.8371 31.166 81.4754C31.159 81.9929 31.0282 82.1293 30.5192 82.2432L30.297 82.2875C29.8259 82.3684 29.8125 82.3874 29.8449 82.8845L29.8477 82.9667C29.842 83.158 29.9257 83.2199 30.1226 83.2178C31.3742 83.203 32.6264 83.196 33.878 83.2009C34.4145 83.203 34.4721 83.1608 34.4609 82.6096L34.4356 82.3726C34.129 82.3213 33.8358 82.284 33.5489 82.2207C33.2487 82.1539 33.1411 82.0309 33.113 81.7257C33.087 81.4466 33.0785 81.1632 33.0757 80.882C33.0617 79.5946 33.0504 78.3071 33.0441 77.0204C33.0427 76.6963 33.1024 76.3953 33.4006 76.1865C33.8527 75.8708 34.3477 75.688 34.8947 75.6507C36.0113 75.5741 36.8599 76.2357 36.9204 77.3488C36.9949 78.722 36.9724 80.1001 36.99 81.4761C36.9914 81.5788 36.9731 81.6821 36.9591 81.7841C36.9324 81.9852 36.8339 82.1363 36.63 82.1884C36.431 82.2404 36.2292 82.2868 36.026 82.3177C35.723 82.3628 35.7167 82.3606 35.6935 82.6665L35.7012 82.8725C35.737 83.2283 35.7377 83.2178 36.0977 83.2142C37.3085 83.2044 38.5186 83.1981 39.7287 83.1995C40.2349 83.2009 40.2708 83.177 40.275 82.6553L40.2736 82.5315C40.2813 82.3979 40.2216 82.3438 40.0845 82.322ZM56.996 74.3605C55.7269 74.0504 54.5231 74.281 53.3799 74.8724C52.2689 75.4468 51.5264 76.3349 51.2438 77.5611C50.9583 78.8007 51.0947 80.0101 51.6424 81.1611C51.9989 81.9085 52.5474 82.4865 53.2941 82.862C55.042 83.7423 57.1802 83.3429 58.5513 82.1652C59.6334 81.2363 60.0307 79.9995 60.0546 78.4688C60.0399 78.3156 60.0251 78.0202 59.9843 77.7278C59.7544 76.0613 58.6006 74.7528 56.996 74.3605ZM57.9572 80.7976C57.6204 82.1237 56.4736 82.7129 55.1799 82.2573C54.5196 82.0253 54.026 81.5816 53.6941 80.9818C52.9306 79.6037 52.7836 78.1384 53.2181 76.6351C53.5078 75.6338 54.3319 75.0861 55.312 75.155C56.1881 75.2162 56.8617 75.6367 57.356 76.3496C57.877 77.102 58.0781 77.9577 58.1316 78.8563C58.1407 79.0004 58.133 79.1445 58.133 79.2894L58.1949 79.2964C58.1175 79.7978 58.0809 80.3089 57.9572 80.7976ZM25.0763 74.3387C23.741 74.0335 22.4902 74.3352 21.3314 75.0137C20.3295 75.6001 19.6819 76.4762 19.4337 77.6209C19.2009 78.6903 19.2959 79.7415 19.6749 80.766C19.9055 81.3903 20.2549 81.9395 20.7675 82.3677C21.8468 83.2684 23.1082 83.4962 24.4505 83.2452C25.5867 83.0321 26.5852 82.5273 27.3108 81.583C27.99 80.6999 28.2488 79.686 28.2755 78.587C28.2354 78.2389 28.2256 77.8845 28.1517 77.5449C27.7847 75.8497 26.7933 74.7303 25.0763 74.3387ZM26.1654 80.7934C25.8399 82.1124 24.6748 82.7164 23.3902 82.2608C22.5654 81.9676 22.0282 81.3636 21.6886 80.5895C21.1444 79.3456 21.0333 78.0512 21.3856 76.7392C21.6556 75.7358 22.4691 74.9968 23.7143 75.174C24.4786 75.2823 25.0749 75.6725 25.5192 76.2934C26.1197 77.1308 26.3173 78.0899 26.3447 79.0974V79.3035L26.3953 79.3112C26.3215 79.8062 26.2849 80.3096 26.1654 80.7934Z" fill="#837C7C"/>
</svg>
