<svg width="70" height="70" viewBox="0 0 90 90" fill="none" xmlns="http://www.w3.org/2000/svg">
<path d="M59.9084 16.875C59.4669 16.875 59.0625 17.2288 59.0625 17.7209V33.1787L55.5579 31.1353C55.3385 31.0059 55.0913 30.943 54.8438 30.943C54.5962 30.943 54.349 31.0059 54.1296 31.1353L45.7086 36.0461C45.2699 36.2993 45 36.7677 45 37.2711V47.1039C45 47.6101 45.2699 48.0757 45.7086 48.3289L54.1296 53.2397C54.349 53.3691 54.5962 53.432 54.8438 53.432C55.0913 53.432 55.3385 53.3691 55.5579 53.2397L63.9789 48.3289C64.4176 48.0757 64.6875 47.6073 64.6875 47.1039V42.1875V37.2711V20.3357C64.6875 19.8351 64.4202 19.3748 63.9899 19.1217L60.3259 16.9904C60.1881 16.9116 60.0491 16.875 59.9084 16.875ZM32.3438 30.943C32.097 30.943 31.8504 31.0073 31.6296 31.1353L23.2086 36.0461C22.7699 36.2993 22.5 36.7677 22.5 37.2711V47.1039C22.5 47.6101 22.7699 48.0757 23.2086 48.3289L31.6296 53.2397C32.0712 53.4957 32.6163 53.4957 33.0579 53.2397L41.4789 48.3289C41.9176 48.0757 42.1875 47.6073 42.1875 47.1039V37.2711C42.1875 36.7649 41.9176 36.2993 41.4789 36.0461L33.0579 31.1353C32.8371 31.0073 32.5905 30.943 32.3438 30.943ZM77.3438 30.943C77.0963 30.943 76.849 31.0059 76.6296 31.1353L68.2086 36.0461C67.7699 36.2993 67.5 36.7677 67.5 37.2711V47.1039C67.5 47.6101 67.7699 48.0757 68.2086 48.3289L76.377 53.2672C76.8157 53.5344 77.3663 53.5369 77.8107 53.2782L81.8262 50.9436C82.2424 50.7045 82.2452 50.1006 81.8262 49.856L73.125 44.7308V39.6826L77.3438 37.2272L81.5625 39.6826V43.1982C81.5625 43.6679 81.9573 43.7403 82.2217 43.5828C83.2848 42.9584 86.4899 41.0999 86.4899 41.0999C86.9202 40.8495 87.1875 40.3865 87.1875 39.8859V37.2711C87.1875 36.7649 86.9176 36.2993 86.4789 36.0461L78.0579 31.1353C77.8357 31.0059 77.5912 30.943 77.3438 30.943ZM9.84375 30.9485C9.59625 30.9485 9.34901 31.0114 9.12964 31.1407L0.708618 36.0461C0.269868 36.3021 0 36.7704 0 37.2766V49.8285C0 50.4416 0.663267 50.8217 1.19202 50.5151L4.92737 48.3398C5.35768 48.0867 5.625 47.6265 5.625 47.1259V39.6936L9.84375 37.2327L14.0625 39.6936V47.1259C14.0625 47.6265 14.3298 48.0867 14.7601 48.3398L18.4955 50.5151C19.0242 50.8245 19.6875 50.4416 19.6875 49.8285V37.2766C19.6875 36.7704 19.4176 36.3021 18.9789 36.0461L10.5579 31.1407C10.3385 31.0114 10.0913 30.9485 9.84375 30.9485ZM54.8438 37.2272L59.0625 39.6881V42.1875V44.6869L54.8438 47.1478L50.625 44.6869V39.6881L54.8438 37.2272ZM77.3438 39.386L74.9323 40.7922V43.5992L77.3438 45L79.7552 43.5992V40.7922L77.3438 39.386ZM43.3301 50.6195C43.0407 50.6195 42.7482 50.6903 42.4951 50.8337L34.585 55.4041C34.0646 55.6909 33.75 56.2554 33.75 56.8433V65.9729C33.75 66.5607 34.0787 67.114 34.585 67.4121L36.6669 68.5986C37.6653 69.0908 38.0323 69.093 38.4851 69.093C39.9757 69.093 40.8252 68.2016 40.8252 66.6266V57.6068C40.8252 57.469 40.7182 57.3706 40.5945 57.3706H39.5947C39.4569 57.3706 39.3585 57.4831 39.3585 57.6068V66.6266C39.3585 67.31 38.6363 68.0109 37.4579 67.4231L35.2936 66.1761C35.2233 66.134 35.1727 66.049 35.1727 65.9674V56.8378C35.1727 56.7562 35.212 56.6602 35.2936 56.618L43.2037 52.0587C43.2881 52.0165 43.3834 52.0165 43.4509 52.0587L51.3666 56.618C51.4481 56.6602 51.4874 56.7421 51.4874 56.8378V65.9674C51.4874 66.063 51.4341 66.1449 51.3666 66.1871L43.4509 70.7629C43.3806 70.8051 43.2712 70.8051 43.2037 70.7629L41.1823 69.5599C41.1288 69.5318 41.0434 69.5153 40.99 69.5435C40.4303 69.8725 40.3183 69.9156 39.798 70.0928C39.6602 70.135 39.4728 70.2195 39.8694 70.4388L42.4951 71.9989C42.7567 72.1367 43.0432 72.2186 43.3301 72.2186C43.631 72.2186 43.9234 72.137 44.1541 71.9879L52.0642 67.4121C52.5845 67.1252 52.8992 66.5607 52.8992 65.9729V56.8433C52.8992 56.2554 52.5705 55.705 52.0642 55.4041L44.1541 50.8337C43.908 50.6903 43.6194 50.6195 43.3301 50.6195ZM55.6677 54.8328C54.8605 54.8328 54.1516 55.4854 54.1516 56.3489C54.1516 57.1842 54.8324 57.8705 55.6677 57.8705C56.503 57.8705 57.1838 57.1842 57.1838 56.3489C57.1838 55.4854 56.489 54.8187 55.6677 54.8328ZM55.6512 55.0745C56.3656 55.0745 56.9421 55.6373 56.9421 56.3489C56.9421 57.0464 56.3628 57.6229 55.6512 57.6398C54.9509 57.6398 54.3823 57.0604 54.3823 56.3489C54.3823 55.6373 54.9537 55.0745 55.6512 55.0745ZM55.0964 55.4865V57.1948H55.4205V56.5137H55.7227C55.8464 56.5137 55.8758 56.5664 55.9039 56.662C55.9039 56.676 55.9558 57.1188 55.9698 57.2003H56.3214C56.282 57.1188 56.2531 56.885 56.239 56.7444C56.1996 56.525 56.1868 56.3739 55.9534 56.3599C56.0771 56.3177 56.283 56.2519 56.283 55.9369C56.283 55.4841 55.8895 55.4865 55.6842 55.4865H55.0964ZM55.4205 55.7611H55.6952C55.7796 55.7611 55.9424 55.7584 55.9424 55.9918C55.9424 56.0874 55.9009 56.2418 55.6787 56.239H55.4205V55.7611ZM45.4504 57.1564C43.192 57.1564 41.8524 58.1189 41.8524 59.7052C41.8524 61.4433 43.1942 61.9083 45.3571 62.1277C47.9446 62.3864 48.1476 62.7585 48.1476 63.2648C48.1476 64.1535 47.4342 64.5227 45.7635 64.5227C43.6682 64.5227 43.2073 64.0033 43.0554 62.9626C43.0414 62.853 42.943 62.7704 42.8192 62.7704H41.792C41.6682 62.7704 41.5613 62.8688 41.5613 63.0066C41.5613 64.3341 42.2849 65.9235 45.7471 65.9235C48.2868 65.9207 49.7241 64.9367 49.7241 63.2098C49.7241 61.4998 48.5727 61.045 46.1371 60.7159C43.6733 60.3869 43.429 60.2213 43.429 59.6448C43.429 59.1666 43.6308 58.5406 45.4504 58.5406C47.0789 58.5406 47.6858 58.8968 47.9333 59.9908C47.9615 60.1005 48.0379 60.1666 48.1476 60.1666H49.1748C49.2423 60.1666 49.3002 60.1401 49.3396 60.1007C49.3818 60.0473 49.4086 59.9924 49.3945 59.9249C49.2314 58.0349 47.9845 57.1564 45.4504 57.1564Z" fill="#837C7C"/>
</svg>
